<svg width="35" height="35" viewBox="0 0 35 35" fill="none" xmlns="http://www.w3.org/2000/svg">
<rect width="35" height="35" rx="17.5" fill="#F8FBFA"/>
<path fill-rule="evenodd" clip-rule="evenodd" d="M13.1757 9.5C11.779 9.5 10.516 9.84909 9.59922 10.7003C8.67378 11.5597 8.20276 12.8358 8.20276 14.473V20.527C8.20276 22.1642 8.67378 23.4403 9.59922 24.2997C10.516 25.1509 11.779 25.5 13.1757 25.5H21.8244C23.2211 25.5 24.4842 25.1509 25.4009 24.2997C26.3263 23.4403 26.7974 22.1642 26.7974 20.527V14.473C26.7974 12.8358 26.3263 11.5597 25.4009 10.7003C24.4842 9.84909 23.2211 9.5 21.8244 9.5H13.1757ZM23.7517 14.3539C24.0351 14.1348 24.0874 13.7275 23.8683 13.444C23.6493 13.1605 23.242 13.1083 22.9585 13.3273L18.161 17.0344C17.7717 17.3352 17.2283 17.3352 16.839 17.0344L12.0415 13.3273C11.7581 13.1083 11.3507 13.1605 11.1317 13.444C10.9126 13.7275 10.9649 14.1348 11.2483 14.3539L16.0458 18.061C16.9023 18.7227 18.0977 18.7227 18.9542 18.061L23.7517 14.3539Z" fill="#0B714C"/>
</svg>
