<svg width="36" height="35" viewBox="0 0 36 35" fill="none" xmlns="http://www.w3.org/2000/svg">
<path d="M35.2152 17.3917C35.174 14.0363 34.1748 10.7624 32.3351 7.95579C30.4955 5.14917 27.8924 2.92663 24.832 1.54995C21.7715 0.17327 18.3815 -0.300216 15.061 0.185222C11.7406 0.670682 8.62797 2.09484 6.0898 4.29004C3.55161 6.48522 1.69357 9.35999 0.734467 12.5758C-0.224611 15.7916 -0.244817 19.2144 0.676271 22.4413C1.59736 25.6683 3.42136 28.5646 5.93346 30.7896C8.44555 33.0147 11.5411 34.4755 14.8556 35V22.5201H10.4536V17.3917H14.8556V13.4959C14.7537 12.5901 14.8519 11.6729 15.1433 10.8091C15.4347 9.94535 15.9121 9.15606 16.5418 8.49696C17.1716 7.83784 17.9382 7.32498 18.7878 6.99458C19.6374 6.66416 20.5493 6.52424 21.4587 6.58473C22.7789 6.6028 24.096 6.72053 25.3986 6.93689V11.339H23.1976C22.8181 11.2911 22.4325 11.3291 22.0697 11.4502C21.7068 11.5714 21.3758 11.7725 21.1011 12.0387C20.8264 12.3049 20.6151 12.6295 20.4828 12.9883C20.3503 13.3473 20.3003 13.7314 20.3362 14.1122V17.4358H25.2225L24.4301 22.5642H20.3582V34.8899C24.518 34.2321 28.3042 32.105 31.0299 28.8946C33.7557 25.6841 35.2405 21.6032 35.2152 17.3917Z" fill="#F8FBFA"/>
</svg>
