<svg width="35" height="35" viewBox="0 0 35 35" fill="none" xmlns="http://www.w3.org/2000/svg">
<rect width="35" height="35" rx="17.5" fill="#F8FBFA"/>
<path d="M15.415 10.3984L16.1045 11.6341C16.7268 12.7491 16.477 14.2119 15.4969 15.1921C15.4969 15.1921 14.3081 16.381 16.4636 18.5365C18.6183 20.6912 19.808 19.5032 19.808 19.5032C20.7881 18.523 22.2509 18.2732 23.366 18.8955L24.6016 19.5851C26.2854 20.5248 26.4842 22.8861 25.0043 24.3661C24.1149 25.2554 23.0255 25.9474 21.8211 25.993C19.7938 26.07 16.3507 25.5569 12.8969 22.1031C9.4432 18.6493 8.9301 15.2063 9.00696 13.1789C9.05262 11.9746 9.7446 10.8851 10.6339 9.99581C12.1139 8.5158 14.4753 8.71465 15.415 10.3984Z" fill="#0B714C"/>
</svg>
